<svg width="51" height="51" viewBox="0 0 51 51" fill="none" xmlns="http://www.w3.org/2000/svg">
<path d="M26.5995 7.02295C26.3716 6.66488 26.0624 6.45329 25.6718 6.38818C25.2811 6.32308 24.9231 6.42074 24.5975 6.68115C24.272 6.90902 24.0767 7.21826 24.0116 7.60889C23.9465 7.99951 24.0279 8.35758 24.2557 8.68311C24.4185 8.87842 24.5975 9.0249 24.7928 9.12256C24.9882 9.22021 25.1997 9.26904 25.4276 9.26904C25.5904 9.26904 25.7369 9.25277 25.8671 9.22021C25.9973 9.18766 26.1275 9.12256 26.2577 9.0249C26.5832 8.79704 26.7785 8.48779 26.8436 8.09717C26.9087 7.70654 26.8274 7.34847 26.5995 7.02295ZM43.5917 32.5601L41.0526 31.9741V31.4858C41.899 30.8999 42.5663 30.1431 43.0546 29.2153C43.5428 28.2876 43.787 27.2866 43.787 26.2124V22.8433C43.787 21.0854 43.1604 19.5718 41.9071 18.3022C40.6538 17.0327 39.132 16.3979 37.3417 16.3979C36.5279 16.3979 35.7629 16.5363 35.0468 16.813C34.3306 17.0897 33.6958 17.4559 33.1425 17.9116C32.524 16.3817 31.5067 15.1284 30.0907 14.1519C28.6747 13.1753 27.0878 12.687 25.33 12.687C23.5721 12.687 21.9852 13.1753 20.5692 14.1519C19.1532 15.1284 18.1359 16.3979 17.5175 17.9604C16.9641 17.4722 16.3293 17.0897 15.6132 16.813C14.897 16.5363 14.132 16.3979 13.3182 16.3979C11.5279 16.3979 10.0061 17.0327 8.75281 18.3022C7.49955 19.5718 6.87292 21.0854 6.87292 22.8433V26.2124C6.87292 27.2866 7.1252 28.2876 7.62976 29.2153C8.13432 30.1431 8.7935 30.8999 9.6073 31.4858V31.9741L7.01941 32.5601C5.48946 32.9507 4.24434 33.7563 3.28406 34.9771C2.32377 36.1978 1.84363 37.5894 1.84363 39.1519V41.8862C1.84363 42.2769 1.98197 42.6105 2.25867 42.8872C2.53536 43.1639 2.88529 43.3022 3.30847 43.3022H9.9491C9.91654 43.3999 9.90027 43.4894 9.90027 43.5708C9.90027 43.6522 9.90027 43.7417 9.90027 43.8394V49.064C9.90027 49.4546 10.0468 49.7882 10.3397 50.0649C10.6327 50.3416 10.9745 50.48 11.3651 50.48H20.0565C20.4471 50.48 20.7808 50.3416 21.0575 50.0649C21.3342 49.7882 21.4725 49.4546 21.4725 49.064C21.4725 48.6733 21.3342 48.3315 21.0575 48.0386C20.7808 47.7456 20.4471 47.5991 20.0565 47.5991H18.5428V44.6206C18.5428 44.23 18.4045 43.8882 18.1278 43.5952C17.8511 43.3022 17.5175 43.1558 17.1268 43.1558C16.7037 43.1558 16.3537 43.3022 16.077 43.5952C15.8003 43.8882 15.662 44.23 15.662 44.6206V47.5991H12.7811V43.8394C12.7811 42.4396 13.2124 41.2026 14.0751 40.1284C14.9377 39.0542 16.0363 38.3543 17.371 38.0288L21.326 37.0522L24.0116 43.1069C24.1093 43.3674 24.2802 43.5789 24.5243 43.7417C24.7684 43.9045 25.037 43.9858 25.33 43.9858C25.6229 43.9858 25.8915 43.9045 26.1356 43.7417C26.3798 43.5789 26.5507 43.3674 26.6483 43.1069L29.285 37.1011L33.2401 38.0288C34.6073 38.3543 35.7222 39.0542 36.5848 40.1284C37.4475 41.2026 37.8788 42.4396 37.8788 43.8394V47.5991H34.9979V44.6206C34.9979 44.1974 34.8596 43.8475 34.5829 43.5708C34.3062 43.2941 33.9725 43.1558 33.5819 43.1558C33.1587 43.1558 32.8088 43.2941 32.5321 43.5708C32.2554 43.8475 32.1171 44.1974 32.1171 44.6206V47.5991H30.5057C30.0826 47.5991 29.7326 47.7375 29.4559 48.0142C29.1792 48.2909 29.0409 48.6245 29.0409 49.0151C29.0409 49.4383 29.1792 49.7882 29.4559 50.0649C29.7326 50.3416 30.0826 50.48 30.5057 50.48H39.2948C39.718 50.48 40.0679 50.3416 40.3446 50.0649C40.6213 49.7882 40.7596 49.4383 40.7596 49.0151V43.8394C40.7596 43.7743 40.7596 43.6929 40.7596 43.5952C40.7596 43.4976 40.7596 43.3999 40.7596 43.3022H47.4003C47.7909 43.3022 48.1246 43.1639 48.4012 42.8872C48.6779 42.6105 48.8163 42.2769 48.8163 41.8862V39.1519C48.8163 37.5894 48.328 36.1978 47.3514 34.9771C46.3749 33.7563 45.1216 32.9507 43.5917 32.5601ZM37.3417 19.2788C38.2857 19.2788 39.0995 19.6043 39.7831 20.2554C40.4667 20.9064 40.841 21.7039 40.9061 22.6479H38.9042C38.0578 22.6479 37.2277 22.5422 36.4139 22.3306C35.6001 22.119 34.8189 21.8179 34.0702 21.4272C34.3306 20.8088 34.7538 20.2961 35.3397 19.8892C35.9257 19.4823 36.593 19.2788 37.3417 19.2788ZM33.7772 26.0171C33.7772 25.9845 33.7772 25.9438 33.7772 25.895C33.7772 25.8462 33.7772 25.8055 33.7772 25.7729V24.5034C34.591 24.8289 35.4292 25.0812 36.2919 25.2603C37.1545 25.4393 38.0253 25.5288 38.9042 25.5288H40.9061V26.2124C40.9061 27.189 40.5562 28.0353 39.8563 28.7515C39.1565 29.4676 38.3182 29.8257 37.3417 29.8257C36.3326 29.8257 35.4781 29.4757 34.7782 28.7759C34.0783 28.076 33.7284 27.2215 33.7284 26.2124V26.0171H33.7772ZM19.8124 21.1343C19.8124 19.6043 20.3495 18.3022 21.4237 17.228C22.4979 16.1538 23.8 15.6167 25.33 15.6167C26.6971 15.6167 27.9016 16.0643 28.9432 16.9595C29.9849 17.8547 30.6034 18.9533 30.7987 20.2554L28.3573 18.8394C28.0643 18.644 27.7469 18.5789 27.4052 18.644C27.0634 18.7091 26.7785 18.8719 26.5507 19.1323C25.9647 19.8485 25.2486 20.4019 24.4022 20.7925C23.5559 21.1831 22.677 21.3784 21.7655 21.3784H19.8124V21.1343ZM13.3182 19.2788C14.0669 19.2788 14.7343 19.4823 15.3202 19.8892C15.9061 20.2961 16.3293 20.8088 16.5897 21.4272C15.841 21.8179 15.0598 22.119 14.246 22.3306C13.4322 22.5422 12.6021 22.6479 11.7557 22.6479H9.75378C9.81889 21.7039 10.1932 20.9064 10.8768 20.2554C11.5604 19.6043 12.3742 19.2788 13.3182 19.2788ZM9.75378 25.5288H11.7557C12.6346 25.5288 13.5054 25.4393 14.368 25.2603C15.2307 25.0812 16.0689 24.8289 16.8827 24.5034V26.2124C16.8827 27.189 16.5328 28.0272 15.8329 28.7271C15.133 29.4269 14.2948 29.7769 13.3182 29.7769C12.3417 29.7769 11.5035 29.4269 10.8036 28.7271C10.1037 28.0272 9.75378 27.189 9.75378 26.2124V25.5288ZM16.7362 35.1968C15.3039 35.5549 14.0507 36.1978 12.9764 37.1255C11.9022 38.0532 11.1047 39.1519 10.5839 40.4214H4.72449V39.1519C4.72449 38.2729 5.00118 37.4754 5.55457 36.7593C6.10795 36.0431 6.8241 35.5874 7.703 35.3921L11.4139 34.5132C11.7395 34.4155 12.008 34.2365 12.2196 33.9761C12.4312 33.7157 12.537 33.4227 12.537 33.0972V32.6089C12.6672 32.6089 12.7974 32.617 12.9276 32.6333C13.0578 32.6496 13.188 32.6577 13.3182 32.6577C13.4484 32.6577 13.5787 32.6577 13.7089 32.6577C13.8391 32.6577 13.9856 32.6414 14.1483 32.6089V33.0483C14.1483 33.0483 14.1483 33.0646 14.1483 33.0972C14.1483 33.325 14.2053 33.5448 14.3192 33.7563C14.4331 33.9679 14.5878 34.1551 14.7831 34.3179C14.8807 34.3504 14.9703 34.383 15.0516 34.4155C15.133 34.4481 15.2225 34.4806 15.3202 34.5132L17.4686 35.0015L16.7362 35.1968ZM20.7401 32.9507C20.5448 32.8856 20.3576 32.8205 20.1786 32.7554C19.9996 32.6903 19.7961 32.6252 19.5682 32.5601L16.9803 31.9741V31.4858C17.2408 31.3231 17.4686 31.1522 17.6639 30.9731C17.8593 30.7941 18.0546 30.5907 18.2499 30.3628C18.5754 30.8511 18.9497 31.3068 19.3729 31.73C19.7961 32.1532 20.2518 32.5275 20.7401 32.853V32.9507ZM27.0389 35.0991L25.33 38.9077L23.6698 35.0503V34.0249C23.9302 34.09 24.2069 34.1388 24.4999 34.1714C24.7928 34.2039 25.0695 34.2202 25.33 34.2202C25.6229 34.2202 25.9078 34.2039 26.1844 34.1714C26.4611 34.1388 26.746 34.09 27.0389 34.0249V35.0991ZM25.33 31.3394C23.8 31.3394 22.4979 30.7941 21.4237 29.7036C20.3495 28.6131 19.8124 27.3029 19.8124 25.7729V24.2593H21.7655C22.9048 24.2593 24.0035 24.0558 25.0614 23.6489C26.1193 23.242 27.0715 22.6642 27.9178 21.9155L30.8964 23.6245V25.9683C30.8313 27.4657 30.2616 28.7352 29.1874 29.7769C28.1132 30.8185 26.8274 31.3394 25.33 31.3394ZM29.9198 32.9995V32.9019C30.4081 32.5763 30.8638 32.202 31.287 31.7788C31.7102 31.3556 32.0845 30.8836 32.41 30.3628C32.6053 30.5907 32.8007 30.8022 32.996 30.9976C33.1913 31.1929 33.4029 31.3556 33.6307 31.4858V31.9741L31.0428 32.5601C30.8475 32.6252 30.6522 32.6903 30.4569 32.7554C30.2616 32.8205 30.0826 32.9019 29.9198 32.9995ZM45.9354 40.4214H40.0272C39.5064 39.1519 38.7089 38.0532 37.6346 37.1255C36.5604 36.1978 35.3234 35.5549 33.9237 35.1968L33.1913 35.0503L35.3397 34.5132C35.4374 34.5132 35.535 34.4888 35.6327 34.4399C35.7303 34.3911 35.8117 34.3504 35.8768 34.3179C36.1047 34.1877 36.2756 34.0086 36.3895 33.7808C36.5035 33.5529 36.5604 33.325 36.5604 33.0972C36.5604 33.0972 36.5604 33.089 36.5604 33.0728C36.5604 33.0565 36.5604 33.0483 36.5604 33.0483V32.6089C36.6906 32.6414 36.8208 32.6577 36.951 32.6577C37.0813 32.6577 37.2115 32.6577 37.3417 32.6577C37.4719 32.6577 37.6102 32.6577 37.7567 32.6577C37.9032 32.6577 38.0415 32.6414 38.1718 32.6089V33.0972C38.1718 33.4227 38.2694 33.7238 38.4647 34.0005C38.66 34.2772 38.9205 34.4481 39.246 34.5132L42.9569 35.3921C43.8358 35.5874 44.552 36.0431 45.1053 36.7593C45.6587 37.4754 45.9354 38.2892 45.9354 39.2007V40.4214ZM26.3553 33.0972C26.2251 32.967 26.0705 32.8612 25.8915 32.7798C25.7124 32.6984 25.5253 32.6577 25.33 32.6577C25.1346 32.6577 24.9475 32.6984 24.7684 32.7798C24.5894 32.8612 24.4348 32.967 24.3046 33.0972C24.1744 33.2274 24.0686 33.382 23.9872 33.561C23.9058 33.7401 23.8651 33.9272 23.8651 34.1226C23.8651 34.3179 23.9058 34.505 23.9872 34.6841C24.0686 34.8631 24.1744 35.0177 24.3046 35.1479C24.4348 35.2782 24.5894 35.384 24.7684 35.4653C24.9475 35.5467 25.1346 35.5874 25.33 35.5874C25.5253 35.5874 25.7124 35.5467 25.8915 35.4653C26.0705 35.384 26.2251 35.2782 26.3553 35.1479C26.4856 35.0177 26.5832 34.8631 26.6483 34.6841C26.7134 34.505 26.746 34.3179 26.746 34.1226C26.746 33.9272 26.7134 33.7401 26.6483 33.561C26.5832 33.382 26.4856 33.2274 26.3553 33.0972ZM25.4764 0.47998C25.0858 0.47998 24.744 0.618327 24.451 0.89502C24.1581 1.17171 24.0116 1.52165 24.0116 1.94482V4.09326C24.0116 4.48389 24.1581 4.81755 24.451 5.09424C24.744 5.37093 25.0858 5.50928 25.4764 5.50928C25.8671 5.50928 26.2007 5.37093 26.4774 5.09424C26.7541 4.81755 26.8925 4.48389 26.8925 4.09326V1.94482C26.8925 1.52165 26.7541 1.17171 26.4774 0.89502C26.2007 0.618327 25.8671 0.47998 25.4764 0.47998ZM20.1542 5.16748L18.6405 3.65381C18.3475 3.39339 18.0057 3.26318 17.6151 3.26318C17.2245 3.26318 16.8827 3.39339 16.5897 3.65381C16.3293 3.94678 16.1991 4.28857 16.1991 4.6792C16.1991 5.06982 16.3293 5.41162 16.5897 5.70459L18.1034 7.21826C18.2662 7.38102 18.4289 7.49495 18.5917 7.56006C18.7544 7.62516 18.9335 7.65771 19.1288 7.65771C19.3241 7.65771 19.5113 7.61702 19.6903 7.53564C19.8693 7.45426 20.024 7.34847 20.1542 7.21826C20.4471 6.95785 20.5936 6.62419 20.5936 6.21729C20.5936 5.81038 20.4471 5.46045 20.1542 5.16748ZM34.3143 3.70264C34.0214 3.44222 33.6796 3.31201 33.2889 3.31201C32.8983 3.31201 32.5565 3.44222 32.2635 3.70264L30.7499 5.21631C30.4895 5.50928 30.3593 5.85107 30.3593 6.2417C30.3593 6.63232 30.4895 6.97412 30.7499 7.26709C30.9126 7.3973 31.0835 7.49495 31.2626 7.56006C31.4416 7.62516 31.6125 7.65771 31.7753 7.65771C31.9706 7.65771 32.1578 7.62516 32.3368 7.56006C32.5158 7.49495 32.6705 7.3973 32.8007 7.26709L34.3143 5.75342C34.5747 5.46045 34.705 5.11865 34.705 4.72803C34.705 4.3374 34.5747 3.99561 34.3143 3.70264Z" fill="white"/>
</svg>
