<svg width="51" height="52" viewBox="0 0 51 52" fill="none" xmlns="http://www.w3.org/2000/svg">
<path d="M43.0057 8.73901C41.8339 7.53459 40.5643 6.49292 39.1971 5.61401C37.83 4.70256 36.3977 3.92944 34.9003 3.29468C33.4029 2.65991 31.8566 2.19604 30.2616 1.90308C28.634 1.57756 26.9901 1.41479 25.33 1.41479C23.6698 1.41479 22.0259 1.57756 20.3983 1.90308C18.8033 2.19604 17.257 2.65991 15.7596 3.29468C14.2622 3.92944 12.83 4.70256 11.4628 5.61401C10.0956 6.49292 8.82605 7.53459 7.65417 8.73901C6.4823 9.91089 5.44063 11.1804 4.52917 12.5476C3.61772 13.9148 2.85274 15.3471 2.23425 16.8445C1.61576 18.3419 1.14376 19.8881 0.818237 21.4832C0.492716 23.1108 0.329956 24.7546 0.329956 26.4148C0.329956 28.075 0.492716 29.7026 0.818237 31.2976C1.14376 32.9252 1.61576 34.4877 2.23425 35.9851C2.85274 37.4825 3.61772 38.9148 4.52917 40.282C5.44063 41.6492 6.4823 42.9187 7.65417 44.0906C8.82605 45.2625 10.0956 46.3041 11.4628 47.2156C12.83 48.127 14.2622 48.892 15.7596 49.5105C17.257 50.129 18.8033 50.601 20.3983 50.9265C22.0259 51.252 23.6698 51.4148 25.33 51.4148C26.9901 51.4148 28.634 51.252 30.2616 50.9265C31.8566 50.601 33.4029 50.129 34.9003 49.5105C36.3977 48.892 37.83 48.127 39.1971 47.2156C40.5643 46.3041 41.8339 45.2625 43.0057 44.0906C44.1776 42.9187 45.2193 41.6492 46.1307 40.282C47.0422 38.9148 47.8072 37.4825 48.4257 35.9851C49.0441 34.4877 49.5162 32.9252 49.8417 31.2976C50.1672 29.7026 50.33 28.075 50.33 26.4148C50.33 24.7546 50.1672 23.1108 49.8417 21.4832C49.5162 19.8881 49.0441 18.3419 48.4257 16.8445C47.8072 15.3471 47.0422 13.9148 46.1307 12.5476C45.2193 11.1804 44.1776 9.91089 43.0057 8.73901ZM37.0487 12.157L38.1229 7.56714C39.2297 8.31584 40.2551 9.16219 41.1991 10.1062C42.1431 11.0177 43.0057 12.0105 43.787 13.0847C44.5682 14.1589 45.2518 15.2983 45.8378 16.5027C46.4237 17.7071 46.8957 18.9604 47.2538 20.2625L46.7167 20.4089C46.2609 20.474 45.8785 20.6612 45.5692 20.9705C45.26 21.2797 45.0402 21.6459 44.91 22.0691L44.7147 22.948C44.7147 22.948 44.7147 22.9561 44.7147 22.9724C44.7147 22.9887 44.6984 22.9968 44.6659 22.9968L43.3475 21.9714C42.9895 21.711 42.5907 21.5645 42.1512 21.532C41.7118 21.4994 41.2968 21.5808 40.9061 21.7761L39.246 22.655C38.8553 22.8503 38.5542 23.1433 38.3427 23.5339C38.1311 23.9246 38.0415 24.3477 38.0741 24.8035C38.0741 25.2592 38.2124 25.658 38.4891 25.9998C38.7658 26.3416 39.0995 26.5938 39.4901 26.7566L39.5878 26.8054C39.5878 26.8054 39.604 26.8054 39.6366 26.8054C39.6366 26.8054 39.6285 26.8136 39.6122 26.8298C39.5959 26.8461 39.5878 26.8542 39.5878 26.8542L38.5624 28.0261C38.5624 28.0261 38.5542 28.0261 38.538 28.0261C38.5217 28.0261 38.5135 28.0261 38.5135 28.0261L35.7303 26.2195C35.4048 26.0242 35.0549 25.9102 34.6805 25.8777C34.3062 25.8451 33.94 25.9102 33.5819 26.073C33.2564 26.2358 32.9716 26.4636 32.7274 26.7566C32.4833 27.0496 32.3287 27.3914 32.2635 27.782L32.0682 29.1003C32.0031 29.4584 32.0357 29.8165 32.1659 30.1746C32.2961 30.5326 32.4914 30.8419 32.7518 31.1023L34.2167 32.4695C34.2167 32.4695 34.2167 32.4858 34.2167 32.5183L31.8241 36.0828C31.7264 36.2781 31.6451 36.4734 31.58 36.6687C31.5149 36.864 31.4823 37.0593 31.4823 37.2546L31.287 42.4304C31.287 42.4304 31.2788 42.4304 31.2626 42.4304C31.2463 42.4304 31.2382 42.4304 31.2382 42.4304L28.1132 45.5066C28.0806 45.5391 28.0643 45.5554 28.0643 45.5554L26.0135 44.3347C26.0135 44.3347 26.0054 44.3347 25.9891 44.3347C25.9729 44.3347 25.9647 44.3347 25.9647 44.3347C25.9647 44.3347 25.802 43.5779 25.4764 42.0642C25.1509 40.5505 24.9719 39.7611 24.9393 39.696L24.0604 37.2546C23.8977 36.864 23.6454 36.5385 23.3036 36.2781C22.9618 36.0177 22.563 35.8549 22.1073 35.7898L18.0057 35.448C18.0057 35.448 17.9976 35.448 17.9813 35.448C17.965 35.448 17.9569 35.448 17.9569 35.448L15.6132 31.3953C15.6132 31.3627 15.6132 31.3464 15.6132 31.3464L16.1991 27.3914L19.8124 24.657C19.8124 24.657 19.8205 24.657 19.8368 24.657C19.8531 24.657 19.8612 24.657 19.8612 24.657L23.3768 26.1218C23.4745 26.1544 23.5721 26.1869 23.6698 26.2195C23.7675 26.252 23.8814 26.2683 24.0116 26.2683L28.8456 26.8054C29.106 26.838 29.3746 26.8217 29.6512 26.7566C29.9279 26.6915 30.1802 26.5776 30.4081 26.4148L33.6307 24.071C34.0539 23.7781 34.3387 23.3712 34.4852 22.8503C34.6317 22.3295 34.591 21.825 34.3632 21.3367L34.0702 20.6531C33.9074 20.295 33.647 19.9939 33.2889 19.7498C32.9309 19.5056 32.5402 19.3673 32.1171 19.3347L23.0839 18.8464C23.0839 18.8464 23.0839 18.8383 23.0839 18.822C23.0839 18.8057 23.0839 18.7976 23.0839 18.7976L25.8182 18.0652C25.981 18.0001 26.1438 17.9268 26.3065 17.8455C26.4693 17.7641 26.6158 17.6583 26.746 17.5281L30.0663 14.4031C30.0663 14.4031 30.0826 14.4031 30.1151 14.4031L35.0956 13.866C35.5513 13.8009 35.9663 13.6137 36.3407 13.3044C36.715 12.9952 36.951 12.6127 37.0487 12.157ZM20.1542 10.3015L22.0096 6.78589C22.1399 6.52547 22.2294 6.24878 22.2782 5.95581C22.327 5.66284 22.3189 5.38615 22.2538 5.12573L22.0096 3.8562C22.5305 3.7911 23.0757 3.73413 23.6454 3.6853C24.215 3.63647 24.7766 3.61206 25.33 3.61206C25.9159 3.61206 26.4856 3.63647 27.0389 3.6853C27.5923 3.73413 28.1457 3.7911 28.6991 3.8562C28.6991 3.8562 28.6503 3.90503 28.5526 4.00269C28.455 4.10034 28.3899 4.16545 28.3573 4.198L25.7206 5.22339C25.5253 5.32104 25.3462 5.42684 25.1835 5.54077C25.0207 5.6547 24.8742 5.79305 24.744 5.95581L20.6425 10.741C20.6099 10.7735 20.5774 10.8061 20.5448 10.8386C20.5122 10.8712 20.4634 10.8875 20.3983 10.8875C20.3332 10.8875 20.2844 10.8712 20.2518 10.8386C20.2193 10.8061 20.1867 10.7735 20.1542 10.741C20.0891 10.6759 20.0728 10.5945 20.1053 10.4968C20.1379 10.3992 20.1542 10.3341 20.1542 10.3015ZM10.4374 9.17847V12.5476C10.4374 13.0033 10.3234 13.4347 10.0956 13.8416C9.86772 14.2485 9.55847 14.5821 9.16785 14.8425L6.77527 16.3562C6.51485 16.5515 6.26257 16.7631 6.01843 16.991C5.77429 17.2188 5.57084 17.463 5.40808 17.7234L3.21082 20.8972C3.79675 18.586 4.70821 16.4376 5.94519 14.4519C7.18217 12.4662 8.67957 10.7084 10.4374 9.17847ZM11.9022 41.991L11.5604 44.53C9.77006 43.1954 8.20756 41.6085 6.87292 39.7693C5.53829 37.9301 4.5129 35.9363 3.79675 33.7878H5.21277C5.27787 33.7878 5.35111 33.8123 5.4325 33.8611C5.51388 33.9099 5.57084 33.9669 5.60339 34.032L8.48425 38.4753C8.54936 38.573 8.6226 38.6707 8.70398 38.7683C8.78536 38.866 8.8586 38.9473 8.92371 39.0125L11.7069 41.5515C11.772 41.6166 11.8208 41.6817 11.8534 41.7468C11.8859 41.8119 11.9022 41.8933 11.9022 41.991ZM25.33 49.1687C23.1815 49.1687 21.1226 48.892 19.1532 48.3386C17.1838 47.7852 15.3365 46.9877 13.6112 45.946L14.0995 42.2839C14.132 41.8282 14.0751 41.3969 13.9286 40.99C13.7821 40.5831 13.5461 40.2169 13.2206 39.8914C13.2206 39.8914 12.7486 39.46 11.8046 38.5974C10.8606 37.7348 10.3723 37.2872 10.3397 37.2546L7.50769 32.8113C7.24727 32.4207 6.91361 32.1114 6.50671 31.8835C6.09981 31.6557 5.6685 31.5417 5.21277 31.5417H3.16199C2.96667 30.7279 2.82019 29.8897 2.72253 29.0271C2.62488 28.1645 2.57605 27.2937 2.57605 26.4148C2.57605 26.3171 2.57605 26.2195 2.57605 26.1218C2.57605 26.0242 2.57605 25.9265 2.57605 25.8289L7.21472 18.9929C7.31238 18.8302 7.42631 18.6918 7.55652 18.5779C7.68673 18.4639 7.83321 18.3419 7.99597 18.2117L10.3885 16.698C11.1047 16.2423 11.6581 15.6401 12.0487 14.8914C12.4393 14.1427 12.6346 13.3614 12.6346 12.5476V7.46948C13.7089 6.75334 14.8482 6.12671 16.0526 5.5896C17.257 5.05249 18.5103 4.62118 19.8124 4.29565L20.0565 5.56519C20.0891 5.59774 20.0972 5.63029 20.0809 5.66284C20.0647 5.69539 20.0565 5.72795 20.0565 5.7605L18.201 9.27612C18.1359 9.37378 18.0708 9.5284 18.0057 9.73999C17.9406 9.95158 17.9081 10.0574 17.9081 10.0574C17.843 10.448 17.8593 10.8305 17.9569 11.2048C18.0546 11.5792 18.2336 11.9128 18.494 12.2058C18.7219 12.4988 19.0067 12.7185 19.3485 12.865C19.6903 13.0115 20.0402 13.0847 20.3983 13.0847C20.3983 13.0847 20.618 13.0522 21.0575 12.9871C21.4969 12.922 21.912 12.6615 22.3026 12.2058L26.453 7.37183C26.453 7.37183 26.4611 7.36369 26.4774 7.34741C26.4937 7.33114 26.5181 7.323 26.5507 7.323L29.1874 6.24878C29.3827 6.18368 29.5617 6.08602 29.7245 5.95581C29.8872 5.8256 30.0337 5.69539 30.1639 5.56519L31.1893 4.39331C32.0682 4.62118 32.9227 4.90601 33.7528 5.2478C34.5829 5.5896 35.3885 5.97209 36.1698 6.39526C36.1698 6.42782 35.9582 7.30672 35.535 9.03198C35.1119 10.7572 34.9003 11.6199 34.9003 11.6199C34.9003 11.6199 34.8921 11.628 34.8759 11.6443C34.8596 11.6606 34.8514 11.6687 34.8514 11.6687L29.871 12.157C29.6106 12.1895 29.3664 12.2546 29.1385 12.3523C28.9107 12.45 28.7154 12.5964 28.5526 12.7917L25.2323 15.9167L22.4979 16.6492C22.0747 16.7468 21.7085 16.9747 21.3993 17.3328C21.09 17.6908 20.9029 18.0815 20.8378 18.5046C20.8052 18.9604 20.8866 19.3917 21.0819 19.7986C21.2772 20.2055 21.5702 20.5229 21.9608 20.7507C22.1236 20.8484 22.2863 20.9216 22.4491 20.9705C22.6119 21.0193 22.7909 21.0437 22.9862 21.0437L32.0194 21.5808L32.3124 22.2644L29.0897 24.6082L24.2069 24.071L20.6913 22.6062C20.3332 22.4434 19.9589 22.3865 19.5682 22.4353C19.1776 22.4841 18.8195 22.6388 18.494 22.8992L14.8807 25.6335C14.6529 25.7963 14.4576 26.0079 14.2948 26.2683C14.132 26.5287 14.0344 26.8054 14.0018 27.0984L13.4159 31.0046C13.3833 31.2651 13.3915 31.5255 13.4403 31.7859C13.4891 32.0463 13.5787 32.2742 13.7089 32.4695L16.0526 36.571C16.2154 36.864 16.4595 37.1082 16.785 37.3035C17.1106 37.4988 17.4524 37.6127 17.8104 37.6453L21.9608 38.0359L22.8885 40.4773L23.8163 44.7742C23.8814 45.0997 24.0035 45.3845 24.1825 45.6287C24.3615 45.8728 24.5975 46.0763 24.8905 46.239L26.9413 47.4597C27.104 47.5574 27.2831 47.6306 27.4784 47.6794C27.6737 47.7283 27.869 47.7527 28.0643 47.7527C28.3573 47.7527 28.6421 47.7039 28.9188 47.6062C29.1955 47.5085 29.4315 47.3458 29.6268 47.1179L32.8007 43.9929C33.0285 43.7976 33.1994 43.5697 33.3134 43.3093C33.4273 43.0489 33.4843 42.7722 33.4843 42.4792L33.6796 37.3523C33.6796 37.3523 33.6796 37.336 33.6796 37.3035L36.0721 33.739C36.3651 33.2833 36.479 32.7787 36.4139 32.2253C36.3488 31.672 36.121 31.2162 35.7303 30.8582L34.2655 29.491C34.2655 29.491 34.2655 29.4828 34.2655 29.4666C34.2655 29.4503 34.2655 29.4421 34.2655 29.4421L34.4608 28.1238C34.4608 28.1238 34.4771 28.1238 34.5096 28.1238C34.5096 28.0912 34.5096 28.0831 34.5096 28.0994C34.5096 28.1156 34.5096 28.1238 34.5096 28.1238L37.3417 29.9304C37.7974 30.2234 38.302 30.3292 38.8553 30.2478C39.4087 30.1664 39.8645 29.9141 40.2225 29.491L41.2968 28.3191C41.5246 28.0261 41.6792 27.7006 41.7606 27.3425C41.842 26.9845 41.8501 26.6264 41.785 26.2683C41.6874 25.9102 41.5165 25.5929 41.2723 25.3162C41.0282 25.0395 40.7271 24.836 40.369 24.7058L40.2714 24.657C40.2714 24.657 40.2714 24.6407 40.2714 24.6082L41.9315 23.7292C41.9641 23.7292 41.9803 23.7292 41.9803 23.7292L43.3475 24.7546C43.6405 24.9825 43.9742 25.1208 44.3485 25.1697C44.7229 25.2185 45.0891 25.1941 45.4471 25.0964C45.8052 24.9662 46.1063 24.7546 46.3505 24.4617C46.5946 24.1687 46.7655 23.8432 46.8632 23.4851L47.1073 22.6062C47.1073 22.6062 47.1073 22.5981 47.1073 22.5818C47.1073 22.5655 47.1073 22.5574 47.1073 22.5574L47.7421 22.4597C47.8723 23.0782 47.9618 23.7211 48.0106 24.3884C48.0594 25.0557 48.0839 25.7312 48.0839 26.4148C48.0839 29.5398 47.4979 32.4858 46.326 35.2527C45.1216 38.0196 43.4859 40.4366 41.4188 42.5037C39.3518 44.5707 36.9348 46.2065 34.1678 47.4109C31.4009 48.5828 28.455 49.1687 25.33 49.1687Z" fill="white"/>
</svg>
