<svg width="50" height="51" viewBox="0 0 50 51" fill="none" xmlns="http://www.w3.org/2000/svg">
<path d="M23.45 23.58C23.55 23.18 23.5583 22.8883 23.475 22.705C23.3917 22.5217 23.1333 22.3967 22.7 22.33C18.8 21.7633 15.325 21.555 12.275 21.705C9.225 21.855 5.35 22.23 0.65 22.83C0.316667 22.8633 0.116667 22.9717 0.05 23.155C-0.0166667 23.3383 -0.0166667 23.5967 0.05 23.93L0.25 25.23C0.816667 29.63 1.26667 32.93 1.6 35.13L2.55 42.13C2.58333 42.3633 2.63333 42.53 2.7 42.63C2.83333 42.7967 3.01667 42.88 3.25 42.88C4.28333 42.9133 5.43333 43.08 6.7 43.38C7.43333 43.58 8.53333 43.8967 10 44.33L10.35 44.43C11.8833 44.8967 13.1333 45.3633 14.1 45.83C15.3667 46.4633 16.45 47.23 17.35 48.13C17.4167 48.1967 17.4917 48.2967 17.575 48.43C17.6583 48.5633 17.7333 48.6633 17.8 48.73C17.8667 48.7967 17.9667 48.8133 18.1 48.78C18.2333 48.7467 18.325 48.6717 18.375 48.555C18.425 48.4383 18.4667 48.28 18.5 48.08L21.1 34.78L23.45 23.58ZM46.25 32.08C45.55 31.6467 44.5167 31.0133 43.15 30.18L40 28.28C36.0333 25.9467 31.7667 24.1467 27.2 22.88C26.8667 22.78 26.6 22.755 26.4 22.805C26.2 22.855 26.05 23.08 25.95 23.48C24.55 28.68 23.5167 32.5967 22.85 35.23C22.35 37.23 21.5833 40.23 20.55 44.23L19.55 48.18C19.4833 48.48 19.5167 48.68 19.65 48.78C19.7167 48.8133 19.85 48.7967 20.05 48.73L20.15 48.68C20.75 48.3467 21.4667 48.1133 22.3 47.98C22.8 47.88 23.5667 47.78 24.6 47.68L25.45 47.58C25.7167 47.5467 26.1333 47.58 26.7 47.68L27.45 47.78C30.55 48.0133 33.1 48.48 35.1 49.18C35.5 49.3467 35.8167 49.3883 36.05 49.305C36.2833 49.2217 36.5 48.9967 36.7 48.63C39.1667 44.5967 42.4333 39.4967 46.5 33.33C46.7 33.03 46.7833 32.7883 46.75 32.605C46.7167 32.4217 46.55 32.2467 46.25 32.08ZM49.4 25.93C49.1 25.8633 48.6667 25.6967 48.1 25.43L47.3 25.13C43.2333 23.6633 38.6333 22.7133 33.5 22.28L33.15 22.23C32.0167 22.0967 31.1667 22.03 30.6 22.03C29.6333 21.9967 28.7667 22.0633 28 22.23L28.5 22.33C30.2333 22.63 31.75 22.9633 33.05 23.33C34.65 23.7633 36.1 24.28 37.4 24.88C40.5 26.3133 43.25 27.9633 45.65 29.83C45.9167 30.03 46.1333 30.1217 46.3 30.105C46.4667 30.0883 46.65 29.9467 46.85 29.68C47.1833 29.2467 47.7167 28.63 48.45 27.83L49.5 26.63C49.7 26.43 49.8 26.2883 49.8 26.205C49.8 26.1217 49.6667 26.03 49.4 25.93ZM1.5 20.48C1.56667 20.7467 1.675 20.905 1.825 20.955C1.975 21.005 2.16667 20.9967 2.4 20.93C3.1 20.6967 3.91667 20.5133 4.85 20.38C5.38333 20.28 6.2 20.1633 7.3 20.03C9.03333 19.7967 10.5833 19.68 11.95 19.68C13.5833 19.68 15.1167 19.8133 16.55 20.08C17.1167 20.18 17.9667 20.3133 19.1 20.48L20.25 20.68L20.3 20.38L19.7 20.18C18.6 19.78 17.7833 19.48 17.25 19.28C12.3833 17.4133 6.93333 16.2967 0.9 15.93C0.633333 15.8967 0.458333 15.93 0.375 16.03C0.291667 16.13 0.283333 16.3133 0.35 16.58C0.883333 18.3133 1.26667 19.6133 1.5 20.48ZM49.05 19.43C47.4167 19.0967 45.6 18.9133 43.6 18.88C42.1667 18.8133 40.35 18.83 38.15 18.93C34.25 19.03 30.8667 19.5633 28 20.53L28.5 20.48C28.9333 20.4133 29.2667 20.38 29.5 20.38C32.7667 20.3133 35.7167 20.4133 38.35 20.68C41.4833 20.98 44.3833 21.53 47.05 22.33C47.7833 22.5633 48.2917 22.68 48.575 22.68C48.8583 22.68 49.0833 22.5633 49.25 22.33C49.3833 22.13 49.5833 21.6633 49.85 20.93L49.9 20.73C50.0333 20.2633 50.0333 19.955 49.9 19.805C49.7667 19.655 49.4833 19.53 49.05 19.43ZM3.15 13.38C7.45 13.8133 12.1333 15.13 17.2 17.33L21.2 18.98C21.0333 18.7133 20.85 18.48 20.65 18.28C20.5167 18.1467 20.3167 17.9967 20.05 17.83L19.9 17.73C15 14.53 10.2 12.0967 5.5 10.43C4.56667 10.0967 3.9 9.93001 3.5 9.93001C3.1 9.93001 2.825 10.105 2.675 10.455C2.525 10.805 2.41667 11.48 2.35 12.48C2.35 12.78 2.40833 12.9967 2.525 13.13C2.64167 13.2633 2.85 13.3467 3.15 13.38ZM21.9 13.98C20.0333 12.6133 17.2 10.5633 13.4 7.83001L12.85 8.58001C16.65 11.3133 19.4833 13.3633 21.35 14.73L21.9 13.98ZM30.9 13.93C30.9667 13.8633 31.0667 13.7633 31.2 13.63C34.3 10.3967 36.6333 7.98001 38.2 6.38001L37.5 5.68001L37.2 5.98001C34.1 9.21335 31.7667 11.63 30.2 13.23L30.9 13.93ZM32.3 16.93C34.6 16.3967 38.0167 15.5967 42.55 14.53L42.3 13.63L32.1 16.03L32.3 16.93ZM30.1 1.83001C29.9 1.76335 29.6 1.69668 29.2 1.63001L27.15 11.93L28.05 12.13L28.35 10.63C29.15 6.73001 29.7333 3.79668 30.1 1.83001ZM24.4 12.28C24.5333 12.2467 24.6167 12.1967 24.65 12.13C24.6833 12.0633 24.6667 11.9633 24.6 11.83L20.95 2.58001C20.9167 2.44668 20.8333 2.39668 20.7 2.43001L20 2.68001L21.1 5.48001C22.3333 8.58001 23.25 10.9133 23.85 12.48C24.1167 12.3467 24.3 12.28 24.4 12.28ZM20.15 10.63L22.05 13.08C22.2167 13.2467 22.3333 13.38 22.4 13.48L23.15 12.88C21.9833 11.4133 21.0167 10.18 20.25 9.18001L19.65 9.68001C19.55 9.74668 19.5333 9.84668 19.6 9.98001L19.7 10.08C19.9 10.3467 20.05 10.53 20.15 10.63ZM25.2 9.98001C25.2667 10.8467 25.3333 11.5133 25.4 11.98L26.3 11.88C26.2333 10.8467 26.1 9.29668 25.9 7.23001L25.15 7.28001C24.95 7.28001 24.8833 7.36335 24.95 7.53001L25.2 9.98001ZM35.15 12.28C34.8833 12.4467 34.4667 12.68 33.9 12.98L33.1 13.43L31.35 14.48L31.8 15.28C33.6 14.28 34.95 13.5133 35.85 12.98C35.65 12.7133 35.5333 12.5217 35.5 12.405C35.4667 12.2883 35.425 12.2217 35.375 12.205C35.325 12.1883 35.25 12.2133 35.15 12.28ZM29.55 12.78C29.7167 12.48 29.95 12.0467 30.25 11.48L31.7 8.63001L30.85 8.23001C30.0833 9.76335 29.3667 11.13 28.7 12.33L29.55 12.78Z" fill="white"/>
</svg>
