<svg width="50" height="51" viewBox="0 0 50 51" fill="none" xmlns="http://www.w3.org/2000/svg">
<path d="M3.16761 50.6826C1.44637 50.6826 0.0487061 49.285 0.0487061 47.5637V16.3746C0.0487061 14.6534 1.44637 13.2557 3.16761 13.2557H12.5243C14.2456 13.2557 15.6432 14.6534 15.6432 16.3746V3.89899C15.6432 2.17774 17.0409 0.780083 18.7622 0.780083H28.1189C29.8401 0.780083 31.2378 2.17774 31.2378 3.89899V28.8503C31.2378 27.129 32.6355 25.7313 34.3567 25.7313H43.7134C45.4347 25.7313 46.8323 27.129 46.8323 28.8503V47.5637C46.8323 49.285 45.4347 50.6826 43.7134 50.6826H3.16761ZM3.16761 47.5637H6.28652V41.3259H3.16761V47.5637ZM6.28652 28.8503H3.16761V31.9692H6.28652V28.8503ZM3.16761 25.7313H6.28652V22.6124H3.16761V25.7313ZM6.28652 35.0881H3.16761V38.207H6.28652V35.0881ZM9.40543 31.9692H12.5243V28.8503H9.40543V31.9692ZM12.5243 35.0881H9.40543V38.207H12.5243V35.0881ZM9.40543 25.7313H12.5243V22.6124H9.40543V25.7313ZM9.40543 47.5637H12.5243V41.3259H9.40543V47.5637ZM12.5243 19.4935V16.3746H9.40543V19.4935H12.5243ZM6.28652 19.4935V16.3746H3.16761V19.4935H6.28652ZM25 47.5637H28.1189V41.3259H25V47.5637ZM21.8811 16.3746H18.7622V19.4935H21.8811V16.3746ZM18.7622 13.2557H21.8811V10.1368H18.7622V13.2557ZM21.8811 22.6124H18.7622V25.7313H21.8811V22.6124ZM21.8811 28.8503H18.7622V31.9692H21.8811V28.8503ZM21.8811 35.0881H18.7622V38.207H21.8811V35.0881ZM25 31.9692H28.1189V28.8503H25V31.9692ZM28.1189 35.0881H25V38.207H28.1189V35.0881ZM25 25.7313H28.1189V22.6124H25V25.7313ZM25 19.4935H28.1189V16.3746H25V19.4935ZM25 13.2557H28.1189V10.1368H25V13.2557ZM28.1189 7.0179V3.89899H25V7.0179H28.1189ZM21.8811 7.0179V3.89899H18.7622V7.0179H21.8811ZM18.7622 41.3259V47.5637H21.8811V41.3259H18.7622ZM37.4756 38.207V35.0881H34.3567V38.207H37.4756ZM40.5945 35.0881V38.207H43.7134V35.0881H40.5945ZM40.5945 41.3259V47.5637H43.7134V41.3259H40.5945ZM43.7134 31.9692V28.8503H40.5945V31.9692H43.7134ZM37.4756 31.9692V28.8503H34.3567V31.9692H37.4756ZM34.3567 41.3259V47.5637H37.4756V41.3259H34.3567Z" fill="white"/>
</svg>
