<svg width="51" height="51" viewBox="0 0 51 51" fill="none" xmlns="http://www.w3.org/2000/svg">
<path d="M38.66 47.3799H17.76V36.6299C17.76 36.3965 17.7183 36.2049 17.635 36.0549C17.5516 35.9049 17.41 35.7632 17.21 35.6299C14.2766 33.4299 12.06 31.7799 10.56 30.6799C10.06 30.3132 9.82664 29.8465 9.85997 29.2799C9.89331 28.1799 9.89331 26.5299 9.85997 24.3299V21.8799C9.89331 20.0465 10.4516 18.5799 11.535 17.4799C12.6183 16.3799 14.06 15.8132 15.86 15.7799H18.36C20.6266 15.8132 22.31 15.8132 23.41 15.7799C23.7433 15.7465 23.96 15.8049 24.06 15.9549C24.16 16.1049 24.1933 16.3465 24.16 16.6799C23.9933 17.9799 23.385 19.1049 22.335 20.0549C21.285 21.0049 20.06 21.4965 18.66 21.5299C17.86 21.5965 17.0766 21.5965 16.31 21.5299C16.0433 21.5299 15.8516 21.5632 15.735 21.6299C15.6183 21.6965 15.585 21.8382 15.635 22.0549C15.685 22.2715 15.6766 22.5965 15.61 23.0299C15.5433 23.4632 15.5266 23.7632 15.56 23.9299C15.5933 24.2299 15.76 24.4132 16.06 24.4799C17.06 24.7465 18.5766 25.0632 20.61 25.4299C21.9766 25.6632 22.9933 25.8465 23.66 25.9799L24.06 26.0299C24.7933 26.1965 25.3433 26.3299 25.71 26.4299C26.3433 26.6299 26.8766 26.8632 27.31 27.1299C29.4433 28.5632 30.56 30.5132 30.66 32.9799C30.6933 33.2799 30.76 33.4882 30.86 33.6049C30.96 33.7215 31.1516 33.7799 31.435 33.7799C31.7183 33.7799 31.9016 33.7132 31.985 33.5799C32.0683 33.4465 32.11 33.2299 32.11 32.9299C32.0766 30.8299 31.26 28.9132 29.66 27.1799C28.8266 26.2799 27.76 25.5965 26.46 25.1299C25.66 24.8632 24.4266 24.5799 22.76 24.2799L22.51 24.2299C22.11 24.1632 21.385 24.1715 20.335 24.2549C19.285 24.3382 18.5433 24.3465 18.11 24.2799C17.41 24.1465 17.0266 23.7799 16.96 23.1799C16.96 22.9465 17.0766 22.8299 17.31 22.8299C17.4433 22.7965 17.6933 22.8132 18.06 22.8799C18.3266 22.9465 18.4933 22.9799 18.56 22.9799C20.8266 22.9132 22.6266 22.0465 23.96 20.3799L24.26 20.0299C24.6933 19.4299 25.0433 18.9965 25.31 18.7299C25.7433 18.3299 26.21 18.0465 26.71 17.8799C26.9433 17.7799 27.1516 17.5965 27.335 17.3299C27.5183 17.0632 27.6766 16.9382 27.81 16.9549C27.9433 16.9715 28.11 17.0965 28.31 17.3299C29.21 18.2299 30.2516 18.6799 31.435 18.6799C32.6183 18.6799 33.6433 18.2299 34.51 17.3299C34.7433 17.0965 34.9183 16.9882 35.035 17.0049C35.1516 17.0215 35.31 17.1299 35.51 17.3299C36.2433 18.0632 37.0766 18.4965 38.01 18.6299C38.9433 18.7632 39.86 18.5799 40.76 18.0799L40.91 17.9799C41.11 17.8465 41.2933 17.8132 41.46 17.8799V33.1799C41.46 33.3799 41.4183 33.5215 41.335 33.6049C41.2516 33.6882 41.11 33.7632 40.91 33.8299C40.21 33.9965 39.66 34.3132 39.26 34.7799C38.86 35.2465 38.66 35.8132 38.66 36.4799C38.5933 40.0799 38.5933 43.7132 38.66 47.3799ZM34.31 10.5799C34.31 12.1799 34.3016 13.3965 34.285 14.2299C34.2683 15.0632 33.985 15.7632 33.435 16.3299C32.885 16.8965 32.21 17.1882 31.41 17.2049C30.61 17.2215 29.935 16.9465 29.385 16.3799C28.835 15.8132 28.56 15.1132 28.56 14.2799C28.4933 11.7132 28.4933 9.17988 28.56 6.67988C28.56 5.57988 29.0933 5.02988 30.16 5.02988C31.0266 4.96322 31.8766 4.96322 32.71 5.02988C33.71 5.02988 34.2433 5.56322 34.31 6.62988V10.5799ZM25.76 16.7299C25.66 16.7965 25.6266 16.7299 25.66 16.5299V16.4799C25.6266 15.7132 25.5933 15.2132 25.56 14.9799C25.46 14.7132 25.26 14.5465 24.96 14.4799C24.76 14.4132 24.2683 14.3799 23.485 14.3799C22.7016 14.3799 22.1933 14.3465 21.96 14.2799C21.6933 14.2132 21.5266 14.0465 21.46 13.7799C21.3933 13.5465 21.36 13.0465 21.36 12.2799V10.0299C21.3266 8.02988 21.3266 6.51322 21.36 5.47988C21.36 4.77988 21.4933 4.29655 21.76 4.02988C22.0266 3.76322 22.51 3.62988 23.21 3.62988C23.9766 3.56322 24.76 3.56322 25.56 3.62988C26.5933 3.69655 27.11 4.19655 27.11 5.12988V14.4299C27.11 14.9632 27.01 15.4299 26.81 15.8299C26.5766 16.2965 26.2266 16.5965 25.76 16.7299ZM41.46 11.9299C41.46 12.0965 41.46 12.3632 41.46 12.7299C41.4933 13.4632 41.4933 14.0132 41.46 14.3799C41.4266 15.1799 41.1433 15.8465 40.61 16.3799C40.0766 16.9132 39.4266 17.1882 38.66 17.2049C37.8933 17.2215 37.2266 16.9799 36.66 16.4799C36.0933 15.9799 35.7933 15.3465 35.76 14.5799C35.6933 13.4132 35.6933 11.6965 35.76 9.42988V9.37988C35.76 8.91322 35.885 8.55488 36.135 8.30488C36.385 8.05488 36.7433 7.92988 37.21 7.92988C38.1433 7.89655 39.06 7.89655 39.96 7.92988C40.8933 7.92988 41.3933 8.44655 41.46 9.47988V11.9299ZM14.16 10.8799C14.16 9.94655 14.16 9.01322 14.16 8.07988C14.2266 7.01322 14.76 6.47988 15.76 6.47988H18.41C18.8766 6.47988 19.2433 6.60488 19.51 6.85488C19.7766 7.10488 19.91 7.46322 19.91 7.92988C19.9433 8.56322 19.96 9.52988 19.96 10.8299C19.96 12.1299 19.96 13.0965 19.96 13.7299C19.96 13.9965 19.9016 14.1715 19.785 14.2549C19.6683 14.3382 19.4933 14.3799 19.26 14.3799C17.26 14.3799 15.7433 14.3965 14.71 14.4299C14.4766 14.4299 14.3266 14.3799 14.26 14.2799C14.1933 14.1799 14.16 14.0132 14.16 13.7799C14.1933 13.3465 14.1933 12.6965 14.16 11.8299V10.8799Z" fill="white"/>
</svg>
