<svg width="51" height="51" viewBox="0 0 51 51" fill="none" xmlns="http://www.w3.org/2000/svg">
<path d="M47.56 45.7301V46.8301C47.56 47.0634 47.4766 47.2551 47.31 47.4051C47.1433 47.5551 46.9433 47.6301 46.71 47.6301H4.60997C4.37664 47.6634 4.18497 47.5968 4.03497 47.4301C3.88497 47.2634 3.80997 47.0634 3.80997 46.8301V4.73009C3.80997 4.49676 3.88497 4.29676 4.03497 4.13009C4.18497 3.96343 4.37664 3.88009 4.60997 3.88009H5.70997C5.94331 3.88009 6.13497 3.96343 6.28497 4.13009C6.43497 4.29676 6.50997 4.49676 6.50997 4.73009V44.1301C6.50997 44.3634 6.58497 44.5551 6.73497 44.7051C6.88497 44.8551 7.07664 44.9301 7.30997 44.9301H46.71C46.9433 44.9301 47.1433 45.0051 47.31 45.1551C47.4766 45.3051 47.56 45.4968 47.56 45.7301ZM24.11 19.2801L33.76 21.6801C33.96 21.7468 34.1766 21.7301 34.41 21.6301C34.6433 21.5301 34.8266 21.3801 34.96 21.1801L37.96 16.1301C38.0933 15.9301 38.2683 15.8051 38.485 15.7551C38.7016 15.7051 38.8933 15.7301 39.06 15.8301L41.21 17.1301C41.3766 17.2634 41.535 17.2884 41.685 17.2051C41.835 17.1218 41.91 16.9634 41.91 16.7301L42.06 7.43009C42.06 7.19676 41.9933 7.04676 41.86 6.98009C41.7266 6.91343 41.56 6.93009 41.36 7.03009L33.26 11.5301C33.06 11.6301 32.96 11.7634 32.96 11.9301C32.96 12.0968 33.0433 12.2301 33.21 12.3301L35.36 13.6301C35.5266 13.7301 35.6433 13.8884 35.71 14.1051C35.7766 14.3218 35.7433 14.5301 35.61 14.7301L33.61 18.0301C33.51 18.2301 33.3433 18.3801 33.11 18.4801C32.8766 18.5801 32.6433 18.5968 32.41 18.5301L23.31 16.2301C23.0766 16.1968 22.835 16.2134 22.585 16.2801C22.335 16.3468 22.1266 16.4634 21.96 16.6301L11.61 26.9801C11.4433 27.1134 11.36 27.2968 11.36 27.5301C11.36 27.7634 11.4433 27.9634 11.61 28.1301L12.36 28.9301C12.5266 29.0634 12.7266 29.1301 12.96 29.1301C13.1933 29.1301 13.3766 29.0634 13.51 28.9301L22.76 19.6301C22.9266 19.4968 23.1433 19.3884 23.41 19.3051C23.6766 19.2218 23.91 19.2134 24.11 19.2801ZM21.01 42.1801H24.86C25.0933 42.1801 25.285 42.1051 25.435 41.9551C25.585 41.8051 25.66 41.6134 25.66 41.3801V23.2801C25.66 23.0468 25.585 22.8384 25.435 22.6551C25.285 22.4718 25.11 22.3551 24.91 22.3051C24.71 22.2551 24.485 22.2634 24.235 22.3301C23.985 22.3968 23.7766 22.5134 23.61 22.6801L20.76 25.5301C20.6266 25.6634 20.5016 25.8718 20.385 26.1551C20.2683 26.4384 20.21 26.6968 20.21 26.9301V41.3801C20.21 41.6134 20.285 41.8051 20.435 41.9551C20.585 42.1051 20.7766 42.1801 21.01 42.1801ZM12.01 33.1801V41.3801C12.01 41.6134 12.085 41.8051 12.235 41.9551C12.385 42.1051 12.5766 42.1801 12.81 42.1801H16.66C16.8933 42.1801 17.085 42.1051 17.235 41.9551C17.385 41.8051 17.46 41.6134 17.46 41.3801V29.6301C17.46 29.3968 17.4016 29.2634 17.285 29.2301C17.1683 29.1968 17.0433 29.2634 16.91 29.4301L13.51 32.7801C13.41 32.8801 13.16 32.9301 12.76 32.9301C12.4933 32.9301 12.3016 32.9468 12.185 32.9801C12.0683 33.0134 12.01 33.0801 12.01 33.1801ZM36.61 24.5301V41.3801C36.61 41.6134 36.685 41.8051 36.835 41.9551C36.985 42.1051 37.1766 42.1801 37.41 42.1801H41.26C41.4933 42.1801 41.685 42.1051 41.835 41.9551C41.985 41.8051 42.06 41.6134 42.06 41.3801V21.6301C42.06 21.3968 41.9933 21.1634 41.86 20.9301C41.7266 20.6968 41.56 20.5301 41.36 20.4301L40.01 19.6301C39.81 19.4968 39.6016 19.4551 39.385 19.5051C39.1683 19.5551 39.01 19.6801 38.91 19.8801L37.01 23.0301C36.8766 23.2301 36.7766 23.4718 36.71 23.7551C36.6433 24.0384 36.61 24.2968 36.61 24.5301ZM33.86 41.3801V25.3301C33.86 25.0968 33.785 24.8801 33.635 24.6801C33.485 24.4801 33.2933 24.3634 33.06 24.3301L29.16 23.3801C28.96 23.3134 28.785 23.3384 28.635 23.4551C28.485 23.5718 28.41 23.7468 28.41 23.9801V41.3801C28.41 41.6134 28.485 41.8051 28.635 41.9551C28.785 42.1051 28.9766 42.1801 29.21 42.1801H33.06C33.2933 42.1801 33.485 42.1051 33.635 41.9551C33.785 41.8051 33.86 41.6134 33.86 41.3801Z" fill="white"/>
</svg>
