<svg width="1920" height="51" viewBox="0 0 1920 10%" fill="none" xmlns="http://www.w3.org/2000/svg">
    <path opacity="0.33"
        d="M908.125 34.2301C516.372 78.3801 402.631 17.2301 292.732 34.2301C126.156 60.1301 -0.650024 30.4301 -0.650024 30.4301V0.580078H1920.65V30.4301C1920.65 30.4301 1801.34 43.4801 1738.32 45.0801C1675.3 46.7301 1617.66 38.9301 1592.68 34.0301C1547.92 25.3801 1431.29 4.93008 1334.46 2.93008C1237.63 0.930078 945.398 30.0801 908.125 34.2301Z"
        fill="rgb(50,50,50)" />
    <path opacity="0.66"
        d="M1409.58 34.2301C1322.17 34.2301 1261.26 22.6301 1161.54 14.6801C1106.6 10.3301 872.773 9.63008 673.534 34.2301C474.295 58.8301 497.351 17.0301 386.876 34.2301C221.644 59.7301 -0.650024 20.4801 -0.650024 20.4801V0.580078H1920.65V18.8301C1920.65 18.8301 1866.47 9.58008 1743.7 9.58008C1555.99 9.63008 1489.7 34.2301 1409.58 34.2301Z"
        fill="linear-gradient(135deg, #1a1a1a 0%, #2a2a2a 100%)" />
    <path
        d="M1471.26 15.0301C1087 -13.7199 960.192 47.7801 712.152 24.7801C464.305 1.48008 464.305 3.28008 354.406 10.8801C245.276 18.4801 253.538 23.0301 172.075 26.8301C54.2992 32.4301 -0.650024 0.580078 -0.650024 0.580078H1920.65C1920.65 0.580078 1901.63 21.0301 1760.03 24.6301C1618.43 28.2301 1593.26 24.0801 1471.26 15.0301Z"
        fill="linear-gradient(135deg, #1a1a1a 0%, #2a2a2a 100%)" stroke="transparent"/>
</svg>