<svg width="1920" height="51" viewBox="0 0 1920 10%" fill="none" xmlns="http://www.w3.org/2000/svg">
    <path opacity="0.33"
        d="M1011.88 16.4301C1403.63 -27.7199 1517.37 33.4301 1627.27 16.4301C1793.84 -9.46992 1920.65 20.2301 1920.65 20.2301V50.0801H-0.650024V20.2301C-0.650024 20.2301 118.663 7.18008 181.681 5.58008C244.7 3.93008 302.339 11.7301 327.316 16.6301C372.082 25.2801 488.705 45.7301 585.539 47.7301C682.372 49.7301 974.602 20.5801 1011.88 16.4301Z"
        fill="rgb(50, 50, 50)" />
    <path opacity="0.66"
        d="M510.416 16.4301C597.835 16.4301 658.74 28.0301 758.456 35.9801C813.405 40.3301 1047.23 41.0301 1246.47 16.4301C1445.7 -8.16992 1422.65 33.6301 1533.12 16.4301C1698.36 -9.06992 1920.65 30.1801 1920.65 30.1801V50.0801H-0.650024V31.8301C-0.650024 31.8301 53.5306 41.0801 176.302 41.0801C364.013 41.0301 430.298 16.4301 510.416 16.4301Z"
        fill="linear-gradient(135deg, #1a1a1a 0%, #2a2a2a 100%)" />
    <path
        d="M448.742 35.6301C833.002 64.3801 959.808 2.88008 1207.85 25.8801C1455.7 49.1801 1455.7 47.3801 1565.59 39.7801C1674.72 32.1801 1666.46 27.6301 1747.93 23.8301C1865.7 18.2301 1920.65 50.0801 1920.65 50.0801H-0.650024C-0.650024 50.0801 18.3708 29.6301 159.971 26.0301C301.57 22.4301 326.74 26.5801 448.742 35.6301Z"
        fill="linear-gradient(135deg, #1a1a1a 0%, #2a2a2a 100%)" stroke="transparent"/>
</svg>